<svg width="72" height="72" viewBox="0 0 72 72" fill="none" xmlns="http://www.w3.org/2000/svg">
<g clip-path="url(#clip0_2830_19323)">
<mask id="mask0_2830_19323" style="mask-type:luminance" maskUnits="userSpaceOnUse" x="0" y="0" width="72" height="72">
<path d="M72 0H0V72H72V0Z" fill="white"/>
</mask>
<g mask="url(#mask0_2830_19323)">
<mask id="mask1_2830_19323" style="mask-type:luminance" maskUnits="userSpaceOnUse" x="-1" y="-1" width="74" height="74">
<path d="M-0.25 -0.25H72.25V72.25H-0.25V-0.25Z" fill="white"/>
</mask>
<g mask="url(#mask1_2830_19323)">
<g opacity="0.5">
<path d="M54.9227 20.66H38.0185C36.6808 20.66 35.5964 21.7444 35.5964 23.082V28.3461C35.5964 29.6838 36.6808 30.7681 38.0185 30.7681H45.3142L42.6795 33.3512L48.1358 38.789C49.0832 39.7333 50.6194 39.7333 51.5669 38.789L52.5007 37.9013V45.193C52.5007 46.5307 53.585 47.6151 54.9227 47.6151H60.2211C61.5588 47.6151 62.6432 46.5307 62.6432 45.193V28.3461V23.082C62.6432 21.8699 61.7526 20.8656 60.59 20.688C60.4931 20.6732 60.3946 20.664 60.2944 20.6611C60.2804 20.6606 60.2665 20.6604 60.2524 20.6602C60.2419 20.6601 60.2316 20.66 60.2211 20.66H54.9227Z" fill="url(#paint0_linear_2830_19323)"/>
</g>
<path d="M23.5682 28.6151L10.265 41.8733C9.31759 42.8174 9.31759 44.3485 10.265 45.2927L14.0057 49.0208C14.9532 49.965 16.4895 49.965 17.4369 49.0208L30.7401 35.7627C31.6876 34.8184 31.6876 33.2874 30.7401 32.3431L26.9994 28.6151C26.5256 28.143 25.9048 27.9068 25.2838 27.9068C24.6629 27.9068 24.0419 28.143 23.5682 28.6151Z" fill="url(#paint1_linear_2830_19323)"/>
<path d="M23.5834 28.6446L18.1272 34.0823L18.9386 34.8966C19.8859 35.8408 21.4223 35.8408 22.3697 34.8966L26.1103 31.1685C27.0579 30.2243 27.0579 28.6932 26.1103 27.7491L27.0146 28.6446C26.5409 28.1725 25.9201 27.9364 25.2991 27.9364C24.6782 27.9364 24.0572 28.1725 23.5834 28.6446Z" fill="url(#paint2_linear_2830_19323)"/>
</g>
</g>
</g>
<defs>
<linearGradient id="paint0_linear_2830_19323" x1="62.0103" y1="21.4632" x2="33.1238" y2="48.9496" gradientUnits="userSpaceOnUse">
<stop stop-color="#78D30C"/>
<stop offset="0.5" stop-color="#67C50D"/>
<stop offset="1" stop-color="#56B60E"/>
</linearGradient>
<linearGradient id="paint1_linear_2830_19323" x1="12.1113" y1="47.13" x2="28.6556" y2="30.4562" gradientUnits="userSpaceOnUse">
<stop stop-color="#107C10"/>
<stop offset="0.5" stop-color="#0E7012"/>
<stop offset="1" stop-color="#0B6413"/>
</linearGradient>
<linearGradient id="paint2_linear_2830_19323" x1="21.6961" y1="30.5206" x2="41.1671" y2="49.1738" gradientUnits="userSpaceOnUse">
<stop stop-color="#33990F"/>
<stop offset="0.5" stop-color="#218A10"/>
<stop offset="1" stop-color="#107C10"/>
</linearGradient>
<clipPath id="clip0_2830_19323">
<rect width="72" height="72" fill="white"/>
</clipPath>
</defs>
</svg>
